<svg width="256" height="266" viewBox="0 0 256 266" fill="none" xmlns="http://www.w3.org/2000/svg">
<ellipse cx="128.335" cy="207.397" rx="72.3349" ry="16.4397" fill="url(#paint0_linear_11_2)"/>
<rect x="56" y="166.298" width="144.67" height="41.0994" fill="url(#paint1_linear_11_2)"/>
<ellipse cx="128.335" cy="166.298" rx="72.3349" ry="16.4397" fill="#814918"/>
<path d="M128.335 171.177C148.317 171.177 166.412 169.337 179.515 166.361C186.065 164.873 191.376 163.1 195.052 161.126C196.89 160.139 198.327 159.098 199.305 158.012C200.284 156.925 200.811 155.786 200.811 154.606C200.811 153.427 200.284 152.288 199.305 151.201C198.327 150.115 196.89 149.074 195.052 148.087C191.376 146.113 186.065 144.339 179.515 142.852C166.412 139.876 148.317 138.036 128.335 138.036C108.353 138.036 90.2581 139.876 77.1551 142.852C70.6047 144.339 65.2941 146.113 61.6176 148.087C59.7795 149.074 58.343 150.115 57.3646 151.201C56.3855 152.288 55.8587 153.427 55.8587 154.606C55.8587 155.786 56.3855 156.925 57.3646 158.012C58.343 159.098 59.7795 160.139 61.6176 161.126C65.2941 163.1 70.6047 164.873 77.1551 166.361C90.2581 169.337 108.353 171.177 128.335 171.177Z" fill="#F3EDDF" stroke="white" stroke-width="0.282558"/>
<ellipse cx="128.335" cy="153.968" rx="72.3349" ry="16.4397" fill="url(#paint2_linear_11_2)"/>
<rect x="56" y="112.869" width="144.67" height="41.0994" fill="url(#paint3_linear_11_2)"/>
<ellipse cx="128.335" cy="112.869" rx="72.3349" ry="16.4397" fill="#D8B078"/>
<path d="M128.335 117.899C148.317 117.899 166.412 116.058 179.515 113.08C186.065 111.592 191.376 109.817 195.052 107.841C196.89 106.854 198.327 105.812 199.305 104.726C200.284 103.638 200.811 102.498 200.811 101.318C200.811 100.138 200.284 98.9977 199.305 97.9101C198.327 96.8235 196.89 95.782 195.052 94.7943C191.376 92.8188 186.065 91.0442 179.515 89.5554C166.412 86.5775 148.317 84.7368 128.335 84.7368C108.353 84.7368 90.2581 86.5775 77.1551 89.5554C70.6047 91.0442 65.2941 92.8188 61.6176 94.7943C59.7794 95.782 58.343 96.8235 57.3646 97.9101C56.3854 98.9977 55.8587 100.138 55.8587 101.318C55.8587 102.498 56.3854 103.638 57.3646 104.726C58.343 105.812 59.7794 106.854 61.6176 107.841C65.2941 109.817 70.6047 111.592 77.1551 113.08C90.2581 116.058 108.353 117.899 128.335 117.899Z" fill="#F3EDDF" stroke="#F3EDDF" stroke-width="0.282558"/>
<rect x="56" y="59.4397" width="144.67" height="41.0994" fill="#4B7910"/>
<ellipse cx="128.335" cy="100.539" rx="72.3349" ry="16.4397" fill="url(#paint4_linear_11_2)"/>
<rect x="56" y="59.4397" width="144.67" height="41.0994" fill="url(#paint5_linear_11_2)"/>
<rect x="56" y="59.4397" width="144.67" height="41.0994" fill="url(#paint6_linear_11_2)"/>
<ellipse cx="128.335" cy="59.4397" rx="72.3349" ry="16.4397" fill="#63A908"/>
<defs>
<linearGradient id="paint0_linear_11_2" x1="56" y1="207.397" x2="200.668" y2="208.641" gradientUnits="userSpaceOnUse">
<stop stop-color="#2B1B07"/>
<stop offset="0.65" stop-color="#764418"/>
<stop offset="1" stop-color="#442C0B"/>
</linearGradient>
<linearGradient id="paint1_linear_11_2" x1="56" y1="193.013" x2="200.67" y2="193.013" gradientUnits="userSpaceOnUse">
<stop stop-color="#2B1B07"/>
<stop offset="0.65" stop-color="#764418"/>
<stop offset="1" stop-color="#442C0B"/>
</linearGradient>
<linearGradient id="paint2_linear_11_2" x1="56" y1="153.968" x2="200.668" y2="155.212" gradientUnits="userSpaceOnUse">
<stop stop-color="#8D724C"/>
<stop offset="0.65" stop-color="#D8B078"/>
<stop offset="1" stop-color="#997B52"/>
</linearGradient>
<linearGradient id="paint3_linear_11_2" x1="56" y1="139.584" x2="200.67" y2="139.584" gradientUnits="userSpaceOnUse">
<stop stop-color="#8D724C"/>
<stop offset="0.65" stop-color="#D8B078"/>
<stop offset="1" stop-color="#997B52"/>
</linearGradient>
<linearGradient id="paint4_linear_11_2" x1="56" y1="100.539" x2="200.668" y2="101.782" gradientUnits="userSpaceOnUse">
<stop stop-color="#3A5C0D"/>
<stop offset="0.65" stop-color="#63A908"/>
<stop offset="1" stop-color="#3F660E"/>
</linearGradient>
<linearGradient id="paint5_linear_11_2" x1="56" y1="82.0444" x2="129.451" y2="84.5304" gradientUnits="userSpaceOnUse">
<stop stop-color="#3F660E"/>
<stop offset="0.5" stop-color="#4B7910"/>
<stop offset="1" stop-color="#3F660E"/>
</linearGradient>
<linearGradient id="paint6_linear_11_2" x1="56" y1="86.1543" x2="200.67" y2="86.1543" gradientUnits="userSpaceOnUse">
<stop stop-color="#3A5C0D"/>
<stop offset="0.65" stop-color="#63A908"/>
<stop offset="1" stop-color="#3F660E"/>
</linearGradient>
</defs>
</svg>
